<?xml version="1.0" encoding="UTF-8"?>
<svg id="Layer_1" data-name="Layer 1" xmlns="http://www.w3.org/2000/svg" viewBox="0 0 149.46 38.1">
  <defs>
    <style>
      .cls-1 {
        fill: #231f20;
      }

      .cls-2 {
        fill: #fff;
      }
    </style>
  </defs>
  <g>
    <path class="cls-1" d="M62.78,36v-.25c1.09-.04,1.25-.19,1.25-1.2v-5.67c0-1.02-.16-1.12-1.25-1.19v-.25h3.84v.25c-1.09.05-1.27.21-1.27,1.19v5.67c0,.97.21,1.16,1.27,1.2v.25h-3.84Z"/>
    <path class="cls-1" d="M77.71,27.69c-.52.05-.72.09-.9.23-.26.22-.4.5-.4,1.53v6.7h-.25l-6.01-7.1v5.02c0,1.33.22,1.55,1.27,1.69v.25h-3.19v-.25c1.12-.12,1.32-.31,1.32-1.69v-5.69c-.45-.53-.65-.69-1.32-.69v-.25h2.32l5.26,6.24v-4.4c0-.66-.05-1.05-.26-1.27-.23-.25-.48-.27-1.08-.34v-.25h3.23v.25Z"/>
    <path class="cls-1" d="M85.91,29.64c-.28-1.42-.93-1.65-2.3-1.65h-.76v6.58c0,.98.18,1.14,1.24,1.19v.25h-3.77v-.25c1.07-.06,1.22-.21,1.22-1.34v-6.42h-.78c-1.37,0-2.17.23-2.43,1.65h-.31l.09-2.2h8.02l.09,2.2h-.31Z"/>
    <path class="cls-1" d="M94.49,36h-6.97v-.25c1-.06,1.12-.23,1.12-1.23v-5.64c0-.96-.15-1.15-1.12-1.2v-.25h6.85l.05,1.85h-.32c-.19-1.16-.49-1.36-1.99-1.36h-1.69c-.36,0-.45.05-.45.47v2.84h1.95c1.11,0,1.31-.22,1.46-1.24h.3v3.02h-.3c-.16-1.09-.35-1.25-1.46-1.25h-1.95v3.14c0,.54.35.61,1.31.61h.47c1.85,0,2.4-.34,2.99-1.71h.36l-.59,2.18Z"/>
    <path class="cls-1" d="M102.6,36l-3.08-3.98-.72.03v2.51c0,.98.16,1.14,1.15,1.2v.25h-3.57v-.25c.97-.08,1.1-.22,1.1-1.36v-5.52c0-.96-.1-1.11-1.1-1.19v-.25h3.52c1.23,0,2.15.31,2.7.76.43.35.63.98.63,1.55,0,1.12-.72,1.87-2.34,2.12l2.59,3.27c.37.48.65.56,1.22.61v.25h-2.09ZM98.8,31.57c1.24-.03,1.69-.12,2.29-.44.47-.26.74-.83.74-1.47,0-1.16-.76-1.73-2.37-1.73-.44,0-.66.09-.66.54v3.1Z"/>
    <path class="cls-1" d="M112.68,36h-6.97v-.25c1-.06,1.12-.23,1.12-1.23v-5.64c0-.96-.15-1.15-1.12-1.2v-.25h6.85l.05,1.85h-.32c-.19-1.16-.49-1.36-1.99-1.36h-1.69c-.36,0-.45.05-.45.47v2.84h1.95c1.11,0,1.31-.22,1.46-1.24h.3v3.02h-.3c-.16-1.09-.35-1.25-1.46-1.25h-1.95v3.14c0,.54.35.61,1.31.61h.47c1.85,0,2.4-.34,2.99-1.71h.36l-.59,2.18Z"/>
    <path class="cls-1" d="M120.59,30.02c-.16-.57-.31-.9-.56-1.22-.48-.58-1.15-1.01-1.97-1.01s-1.37.52-1.37,1.23c0,.88,1.01,1.42,2.43,2.21,1.44.8,2.11,1.55,2.11,2.53,0,1.45-1.2,2.42-2.77,2.42-.57,0-1.1-.09-1.6-.3-.26-.1-.49-.14-.64-.14-.2,0-.38.16-.38.43h-.3l-.39-2.74h.3c.63,1.56,1.51,2.29,2.8,2.29.95,0,1.62-.59,1.62-1.45,0-.45-.14-.75-.39-1.02-.48-.49-1.41-1.06-2.28-1.5-1.22-.62-1.66-1.42-1.66-2.22,0-1.41,1.02-2.26,2.36-2.26.56,0,.91.08,1.43.28.24.1.46.16.6.16.23,0,.38-.16.43-.44h.29l.3,2.75h-.34Z"/>
    <path class="cls-1" d="M130.45,29.64c-.28-1.42-.93-1.65-2.3-1.65h-.76v6.58c0,.98.18,1.14,1.24,1.19v.25h-3.77v-.25c1.07-.06,1.22-.21,1.22-1.34v-6.42h-.78c-1.37,0-2.18.23-2.43,1.65h-.31l.09-2.2h8.03l.09,2.2h-.31Z"/>
    <path class="cls-1" d="M148.3,31.97h-13.34v-.73h13.34v.73ZM58.58,31.24h-13.34v.73h13.34v-.73Z"/>
  </g>
  <g>
    <path class="cls-1" d="M59.38,14.21c-1.31.11-1.58.34-1.58,1.81v5.38c-1.29.21-3.54.65-5.74.69-2.31.04-4.61-.86-6.1-2.42-1.27-1.33-1.88-3.07-1.88-5.29,0-2.49.9-4.56,2.42-5.94,1.36-1.24,3.21-1.94,5.4-1.94,1.22,0,1.99.18,3.01.52.43.16.77.23.99.23.47,0,.88-.32,1.02-.75h.5l.18,4.77h-.52c-.56-1.38-.93-1.97-1.6-2.62-.86-.81-2.03-1.24-3.3-1.24-1.56,0-2.8.56-3.77,1.56-1.2,1.2-1.74,3.25-1.74,5.49,0,4.2,2.4,6.73,5.94,6.73,1.74,0,3.01-.63,3.01-1.38v-1.96c0-1.76-.23-3.5-2.01-3.63v-.41h5.79v.41Z"/>
    <path class="cls-1" d="M72.84,21.37h-11.64v-.41c1.66-.11,1.88-.39,1.88-2.05v-9.41c0-1.6-.26-1.92-1.88-2.01v-.41h11.44l.09,3.09h-.54c-.32-1.94-.82-2.27-3.32-2.27h-2.83c-.6,0-.76.09-.76.78v4.75h3.26c1.86,0,2.18-.37,2.44-2.07h.5v5.05h-.5c-.26-1.81-.58-2.09-2.44-2.09h-3.26v5.25c0,.91.58,1.01,2.18,1.01h.78c3.09,0,4.02-.56,4.99-2.85h.6l-.99,3.65Z"/>
    <path class="cls-1" d="M104.19,21.37h-11.64v-.41c1.66-.11,1.88-.39,1.88-2.05v-9.41c0-1.6-.26-1.92-1.88-2.01v-.41h11.44l.09,3.09h-.54c-.32-1.94-.82-2.27-3.32-2.27h-2.83c-.6,0-.76.09-.76.78v4.75h3.26c1.86,0,2.18-.37,2.44-2.07h.5v5.05h-.5c-.26-1.81-.58-2.09-2.44-2.09h-3.26v5.25c0,.91.58,1.01,2.18,1.01h.78c3.09,0,4.02-.56,4.99-2.85h.6l-.99,3.65Z"/>
    <path class="cls-1" d="M130.35,21.37v-.41c.78,0,.93-.04,1.19-.19.17-.09.3-.32.3-.52,0-.32-.15-.91-.41-1.51l-.89-2.03h-5.66l-.99,2.46c-.11.28-.19.65-.19.91,0,.67.48.89,1.51.89v.41h-4.3v-.41c1.25-.13,1.45-.58,2.72-3.61l4.45-10.54h.43l5.31,12.15c.6,1.4.91,1.86,2.03,1.99v.41h-5.51ZM127.74,9.88l-2.48,5.94h4.99l-2.5-5.94Z"/>
    <path class="cls-1" d="M148.42,21.37h-11.62v-.41c1.6-.09,1.88-.43,1.88-2.07v-9.31c0-1.66-.19-1.96-1.88-2.09v-.41h6.11v.41c-1.77.11-2.03.39-2.03,2.05v10.02c0,.82.37.97,1.94.97h1.51c1.75,0,2.91-.39,3.65-1.32.28-.37.56-.84.91-1.6h.56l-1.04,3.76Z"/>
    <g>
      <path class="cls-1" d="M85.76,7.08v.41c.95.11,1.34.15,1.71.56.32.37.41,1.01.41,2.12v7.34l-8.33-10.43h-3.67v.41c1.06,0,1.38.26,2.09,1.14l10.47,12.98h.39v-11.18c0-1.71.22-2.18.63-2.55.28-.24.6-.3,1.42-.39v-.41h-5.12Z"/>
      <path class="cls-1" d="M78.92,18.13v-5.77l-.95-.93v6.69c0,2.31-.2,2.63-1.97,2.83l-.12.41h5.05v-.41c-1.66-.24-2.01-.6-2.01-2.83Z"/>
    </g>
    <path class="cls-1" d="M119.22,19.95l-4.32-5.46c2.7-.41,3.91-1.66,3.91-3.54,0-.95-.35-2.01-1.06-2.59-.93-.76-2.46-1.27-4.51-1.27h-5.87v.41c1.66.13,1.84.39,1.84,1.99v9.22c0,1.9-.22,2.14-1.84,2.27v.41h5.96v-.41c-1.66-.11-1.92-.37-1.92-2.01v-3.55h0s0-1.44,0-1.44c0,0,0,0,0,0v-5.18c0-.76.37-.91,1.1-.91,2.68,0,3.95.95,3.95,2.89,0,1.08-.45,2.03-1.23,2.46-.88.48-1.59.65-3.19.71l1.86,2.44,3.85,4.99h3.5v-.41c-.95-.09-1.4-.22-2.03-1.01Z"/>
  </g>
  <path d="M19.06,34.22c-8.34,0-15.12-6.78-15.12-15.12S10.72,3.98,19.06,3.98s15.12,6.78,15.12,15.12-6.78,15.12-15.12,15.12ZM19.06,4.57c-8.01,0-14.53,6.52-14.53,14.53s6.52,14.53,14.53,14.53,14.53-6.52,14.53-14.53-6.52-14.53-14.53-14.53Z"/>
  <path d="M19.06,35.95c-9.29,0-16.85-7.56-16.85-16.85,0-2.72.67-5.43,1.92-7.83,1.57-2.98,3.96-5.41,6.93-7.01,2.44-1.32,5.2-2.01,7.99-2.01,9.29,0,16.85,7.56,16.85,16.85s-7.56,16.85-16.85,16.85ZM19.06,2.4c-2.76,0-5.5.69-7.92,1.99-2.94,1.59-5.32,3.99-6.87,6.95-1.25,2.37-1.91,5.06-1.91,7.76,0,9.21,7.49,16.7,16.7,16.7s16.7-7.49,16.7-16.7S28.27,2.4,19.06,2.4Z"/>
  <path d="M38.1.08H5.71v-.08H.08v32.39h-.08v5.64h32.39v.08h5.64V5.71h.08V.08ZM37.8.37v5.04h-6.72l1.73,1.68v-1.38h1.5l.02,3.99c-1.48-2.55-3.35-4.39-5.96-5.86h8.31V1.37h-2.36v2.17h-1.5V1.33H5.71V.37h32.09ZM34.55,34.61h1.73v1.77h-1.73v-1.77ZM34.27,27.72c-2.23,4.4-6.49,6.59-6.53,6.61l-.55.28h5.2v1.86H5.71v-1.92h5.37l-.57-.28c-4.09-2.02-6.59-6.49-6.61-6.54l-.28-.5v5.16h-1.99V5.71h1.92v5.43l.28-.63c1.64-3.66,6.49-6.58,6.54-6.61l.46-.27h-5.12v-1.99h26.81v1.92h-5.33l.53.28c3.01,1.58,5.05,3.59,6.63,6.52l.28.52-.02-5.15h1.86v26.81h-1.92v-5.35l-.28.55ZM32.39,32.52h-.69l.69-.71v.71ZM3.55,3.62h-1.58v-1.77h1.58v1.77ZM5.71,5.71h.69l-.69.71v-.71ZM32.52,5.71v.69l-.71-.69h.71ZM34.61,3.55v-1.88h1.77v1.88h-1.77ZM.37.3h5.05v6.85l1.68-1.73h-1.38v-1.5h4.07c-1.17.77-4.4,3.07-5.94,5.9V1.55H1.67v2.37h1.88v1.5H1.33v26.97H.37V.3ZM.3,37.73v-5.05h6.85l-1.73-1.68v1.38h-1.5v-4.05c.72,1.15,2.83,4.18,5.93,5.92H1.55v2.47h2.37v-2.17h1.5v2.21h26.97v.96H.3ZM5.71,32.39v-.69l.71.69h-.71ZM3.62,34.55v1.88h-1.77v-1.88h1.77ZM37.73,37.8h-5.04v-6.72l-1.68,1.73h1.38v1.5h-4.02c1.15-.69,4.05-2.66,5.89-5.94v8.3h2.32v-2.37h-2.03v-1.5h2.21V5.71h.96v32.09Z"/>
  <rect class="cls-2" x="17.99" y="20.08" width="2.27" height="4.94"/>
  <g>
    <path d="M31.36,18.05h-8.52c-.46-1.13-1.42-2-2.57-2.35v.16c1.08.35,1.99,1.17,2.43,2.25l.04.09h8.49c.02.28.03.6.03.9,0,6.72-5.47,12.18-12.18,12.18s-12.18-5.47-12.18-12.18,5.47-12.18,12.18-12.18c3.38,0,6.63,1.42,8.94,3.91l-1.42,1.32c-.13-.14-.24-.26-.36-.37-1.93-1.89-4.47-2.93-7.17-2.93-5.65,0-10.25,4.6-10.25,10.25s4.6,10.25,10.25,10.25c2.66,0,5.17-1.02,7.09-2.86,1.69-1.62,2.78-3.78,3.07-6.09l.02-.17h-6.33l-.02.12c-.37,1.8-1.98,3.1-3.81,3.1-2.15,0-3.89-1.75-3.89-3.89,0-1.76,1.18-3.24,2.79-3.71v-.15c-1.69.48-2.94,2.02-2.94,3.87,0,2.23,1.81,4.04,4.04,4.04,1.94,0,3.57-1.38,3.95-3.22h6.04c-.29,2.28-1.35,4.38-3.03,6-1.89,1.82-4.37,2.82-6.99,2.82-5.57,0-10.1-4.53-10.1-10.1s4.53-10.1,10.1-10.1c2.65,0,5.16,1.03,7.06,2.89.16.15.31.31.45.48l1.63-1.53c-2.26-2.5-5.52-4.07-9.15-4.07-6.8,0-12.33,5.53-12.33,12.33s5.53,12.33,12.33,12.33,12.33-5.53,12.33-12.33c0-.33-.01-.72-.04-1.05Z"/>
    <path d="M17.09,19.56c0,1.1.89,1.99,1.99,1.99s1.99-.89,1.99-1.99c0-.66-.32-1.24-.82-1.6v.19c.41.34.67.84.67,1.41,0,1.02-.83,1.85-1.85,1.85s-1.85-.83-1.85-1.85c0-.61.3-1.14.75-1.48v-.19c-.54.36-.9.97-.9,1.66Z"/>
    <path d="M15.56,19.56c0,1.94,1.58,3.52,3.52,3.52,1.84,0,3.36-1.42,3.51-3.22h7.05c-.19,2.62-1.33,5.05-3.24,6.89-1.99,1.91-4.6,2.96-7.35,2.96-5.85,0-10.62-4.76-10.62-10.62s4.76-10.62,10.62-10.62c2.77,0,5.4,1.07,7.4,3.01l.23.22.78-.92-.2-.19c-2.22-2.14-5.13-3.32-8.2-3.32-6.52,0-11.82,5.3-11.82,11.82s5.3,11.82,11.82,11.82,11.82-5.3,11.82-11.82c0-.05,0-.1,0-.15,0-.03,0-.06,0-.1v-.29s-8.4,0-8.4,0c-.32-1.09-1.16-1.95-2.2-2.32v1.28c.71.41,1.19,1.16,1.19,2.04,0,1.3-1.06,2.36-2.36,2.36s-2.36-1.06-2.36-2.36c0-.9.52-1.68,1.27-2.08v-1.25c-1.4.46-2.43,1.77-2.43,3.33Z"/>
  </g>
  <g>
    <path d="M15.97,26.86h6.27v-1.34h-2.46v-2.07c-.23.04-.46.06-.71.06-.22,0-.44-.02-.66-.06v2.07h-2.46v1.34Z"/>
    <path d="M17.94,21.06s.1.06.15.09v-7.56h-2.46v-2.02h6.96v2.02h-2.46v7.54c.05-.04.1-.08.15-.12v-7.27h2.46v-2.32h-7.25v2.32h2.46v7.32Z"/>
    <path d="M20.28,23.31s-.1.03-.15.04v1.82h2.46v2.02h-6.96v-2.02h2.46v-1.81s-.1-.03-.15-.04v1.7h-2.46v2.32h7.25v-2.32h-2.46v-1.72Z"/>
    <path d="M22.25,13.25v-1.34h-6.27v1.34h2.46v8.08c.21.08.42.13.66.13.25,0,.49-.06.71-.15v-8.05h2.46Z"/>
  </g>
</svg>