<?xml version="1.0" encoding="UTF-8"?>
<svg xmlns="http://www.w3.org/2000/svg" viewBox="0 0 38.1 38.1">
  <defs>
    <style>
      .cls-2 { fill: #fff; }
    </style>
  </defs>
  <path d="M19.06,34.22c-8.34,0-15.12-6.78-15.12-15.12S10.72,3.98,19.06,3.98s15.12,6.78,15.12,15.12-6.78,15.12-15.12,15.12ZM19.06,4.57c-8.01,0-14.53,6.52-14.53,14.53s6.52,14.53,14.53,14.53,14.53-6.52,14.53-14.53-6.52-14.53-14.53-14.53Z"/>
  <path d="M19.06,35.95c-9.29,0-16.85-7.56-16.85-16.85,0-2.72.67-5.43,1.92-7.83,1.57-2.98,3.96-5.41,6.93-7.01,2.44-1.32,5.2-2.01,7.99-2.01,9.29,0,16.85,7.56,16.85,16.85s-7.56,16.85-16.85,16.85ZM19.06,2.4c-2.76,0-5.5.69-7.92,1.99-2.94,1.59-5.32,3.99-6.87,6.95-1.25,2.37-1.91,5.06-1.91,7.76,0,9.21,7.49,16.7,16.7,16.7s16.7-7.49,16.7-16.7S28.27,2.4,19.06,2.4Z"/>
  <path d="M38.1.08H5.71v-.08H.08v32.39h-.08v5.64h32.39v.08h5.64V5.71h.08V.08ZM37.8.37v5.04h-6.72l1.73,1.68v-1.38h1.5l.02,3.99c-1.48-2.55-3.35-4.39-5.96-5.86h8.31V1.37h-2.36v2.17h-1.5V1.33H5.71V.37h32.09ZM34.55,34.61h1.73v1.77h-1.73v-1.77ZM34.27,27.72c-2.23,4.4-6.49,6.59-6.53,6.61l-.55.28h5.2v1.86H5.71v-1.92h5.37l-.57-.28c-4.09-2.02-6.59-6.49-6.61-6.54l-.28-.5v5.16h-1.99V5.71h1.92v5.43l.28-.63c1.64-3.66,6.49-6.58,6.54-6.61l.46-.27h-5.12v-1.99h26.81v1.92h-5.33l.53.28c3.01,1.58,5.05,3.59,6.63,6.52l.28.52-.02-5.15h1.86v26.81h-1.92v-5.35l-.28.55ZM32.39,32.52h-.69l.69-.71v.71ZM3.55,3.62h-1.58v-1.77h1.58v1.77ZM5.71,5.71h.69l-.69.71v-.71ZM32.52,5.71v.69l-.71-.69h.71ZM34.61,3.55v-1.88h1.77v1.88h-1.77ZM.37.3h5.05v6.85l1.68-1.73h-1.38v-1.5h4.07c-1.17.77-4.4,3.07-5.94,5.9V1.55H1.67v2.37h1.88v1.5H1.33v26.97H.37V.3ZM.3,37.73v-5.05h6.85l-1.73-1.68v1.38h-1.5v-4.05c.72,1.15,2.83,4.18,5.93,5.92H1.55v2.47h2.37v-2.17h1.5v2.21h26.97v.96H.3ZM5.71,32.39v-.69l.71.69h-.71ZM3.62,34.55v1.88h-1.77v-1.88h1.77ZM37.73,37.8h-5.04v-6.72l-1.68,1.73h1.38v1.5h-4.02c1.15-.69,4.05-2.66,5.89-5.94v8.3h2.32v-2.37h-2.03v-1.5h2.21V5.71h.96v32.09Z"/>
  <rect class="cls-2" x="17.99" y="20.08" width="2.27" height="4.94"/>
  <g>
    <path d="M31.36,18.05h-8.52c-.46-1.13-1.42-2-2.57-2.35v.16c1.08.35,1.99,1.17,2.43,2.25l.04.09h8.49c.02.28.03.6.03.9,0,6.72-5.47,12.18-12.18,12.18s-12.18-5.47-12.18-12.18,5.47-12.18,12.18-12.18c3.38,0,6.63,1.42,8.94,3.91l-1.42,1.32c-.13-.14-.24-.26-.36-.37-1.93-1.89-4.47-2.93-7.17-2.93-5.65,0-10.25,4.6-10.25,10.25s4.6,10.25,10.25,10.25c2.66,0,5.17-1.02,7.09-2.86,1.69-1.62,2.78-3.78,3.07-6.09l.02-.17h-6.33l-.02.12c-.37,1.8-1.98,3.1-3.81,3.1-2.15,0-3.89-1.75-3.89-3.89,0-1.76,1.18-3.24,2.79-3.71v-.15c-1.69.48-2.94,2.02-2.94,3.87,0,2.23,1.81,4.04,4.04,4.04,1.94,0,3.57-1.38,3.95-3.22h6.04c-.29,2.28-1.35,4.38-3.03,6-1.89,1.82-4.37,2.82-6.99,2.82-5.57,0-10.1-4.53-10.1-10.1s4.53-10.1,10.1-10.1c2.65,0,5.16,1.03,7.06,2.89.16.15.31.31.45.48l1.63-1.53c-2.26-2.5-5.52-4.07-9.15-4.07-6.8,0-12.33,5.53-12.33,12.33s5.53,12.33,12.33,12.33,12.33-5.53,12.33-12.33c0-.33-.01-.72-.04-1.05Z"/>
    <path d="M17.09,19.56c0,1.1.89,1.99,1.99,1.99s1.99-.89,1.99-1.99c0-.66-.32-1.24-.82-1.6v.19c.41.34.67.84.67,1.41,0,1.02-.83,1.85-1.85,1.85s-1.85-.83-1.85-1.85c0-.61.3-1.14.75-1.48v-.19c-.54.36-.9.97-.9,1.66Z"/>
    <path d="M15.56,19.56c0,1.94,1.58,3.52,3.52,3.52,1.84,0,3.36-1.42,3.51-3.22h7.05c-.19,2.62-1.33,5.05-3.24,6.89-1.99,1.91-4.6,2.96-7.35,2.96-5.85,0-10.62-4.76-10.62-10.62s4.76-10.62,10.62-10.62c2.77,0,5.4,1.07,7.4,3.01l.23.22.78-.92-.2-.19c-2.22-2.14-5.13-3.32-8.2-3.32-6.52,0-11.82,5.3-11.82,11.82s5.3,11.82,11.82,11.82,11.82-5.3,11.82-11.82c0-.05,0-.1,0-.15,0-.03,0-.06,0-.1v-.29s-8.4,0-8.4,0c-.32-1.09-1.16-1.95-2.2-2.32v1.28c.71.41,1.19,1.16,1.19,2.04,0,1.3-1.06,2.36-2.36,2.36s-2.36-1.06-2.36-2.36c0-.9.52-1.68,1.27-2.08v-1.25c-1.4.46-2.43,1.77-2.43,3.33Z"/>
  </g>
  <g>
    <path d="M15.97,26.86h6.27v-1.34h-2.46v-2.07c-.23.04-.46.06-.71.06-.22,0-.44-.02-.66-.06v2.07h-2.46v1.34Z"/>
    <path d="M17.94,21.06s.1.06.15.09v-7.56h-2.46v-2.02h6.96v2.02h-2.46v7.54c.05-.04.1-.08.15-.12v-7.27h2.46v-2.32h-7.25v2.32h2.46v7.32Z"/>
    <path d="M20.28,23.31s-.1.03-.15.04v1.82h2.46v2.02h-6.96v-2.02h2.46v-1.81s-.1-.03-.15-.04v1.7h-2.46v2.32h7.25v-2.32h-2.46v-1.72Z"/>
    <path d="M22.25,13.25v-1.34h-6.27v1.34h2.46v8.08c.21.08.42.13.66.13.25,0,.49-.06.71-.15v-8.05h2.46Z"/>
  </g>
</svg>
