<?xml version="1.0" encoding="UTF-8"?>
<svg id="Layer_1" data-name="Layer 1" xmlns="http://www.w3.org/2000/svg" viewBox="0 0 150.74 33.69">
  <defs>
    <style>
      .cls-1 {
        fill: #231f20;
      }

      .cls-2 {
        fill: none;
        stroke: #231f20;
        stroke-miterlimit: 10;
        stroke-width: .5px;
      }

      .cls-3 {
        fill: #221f1f;
      }
    </style>
  </defs>
  <rect class="cls-2" x=".25" y=".25" width="33.19" height="33.19"/>
  <rect class="cls-2" x="5.89" y="5.89" width="21.91" height="21.91" transform="translate(16.84 -6.98) rotate(45)"/>
  <path d="M16.84,32.64c-8.71,0-15.8-7.09-15.8-15.8S8.13,1.05,16.84,1.05s15.8,7.09,15.8,15.8-7.09,15.8-15.8,15.8ZM16.84,1.71C8.5,1.71,1.71,8.5,1.71,16.84s6.79,15.14,15.14,15.14,15.14-6.79,15.14-15.14S25.19,1.71,16.84,1.71Z"/>
  <path class="cls-3" d="M14.22,22.15v-.33c1.48-.05,1.7-.26,1.7-1.63v-6.68c0-1.39-.21-1.53-1.7-1.62v-.33h5.22v.33c-1.48.07-1.72.28-1.72,1.62v6.68c0,1.32.28,1.58,1.72,1.63v.33h-5.22Z"/>
  <path class="cls-3" d="M17.05,25.23c-2.47,0-4.88-.97-6.44-2.6-1.35-1.43-2.01-3.29-2.01-5.69,0-2.6.92-4.88,2.6-6.4,1.49-1.37,3.5-2.09,5.82-2.09,1.32,0,2.13.19,3.25.56.46.17,1.25.29,1.55.29.54,0,1.07-.32,1.28-.81h.23v4.86h-.26c-.61-1.46-1.21-2.17-1.98-2.87-1.02-.92-2.3-1.42-3.77-1.42-1.7,0-3.14.6-4.29,1.78-1.27,1.27-1.97,3.47-1.97,6.18,0,4.62,2.64,7.61,6.74,7.61,1.99,0,3.42-.69,3.42-1.67l.04-3.97c0-1.92-.32-2.16-1.91-2.4v-.09h5.72v.08c-1.44.15-1.74.84-1.74,2.45l.03,6.21h-6.31Z"/>
  <g>
    <path class="cls-1" d="M67.5,32.36v-.22c.98-.03,1.13-.17,1.13-1.08v-5.1c0-.92-.14-1.01-1.13-1.07v-.22h3.45v.22c-.98.05-1.14.19-1.14,1.07v5.1c0,.87.19,1.05,1.14,1.08v.22h-3.45Z"/>
    <path class="cls-1" d="M80.92,24.89c-.47.05-.65.08-.81.21-.23.2-.36.45-.36,1.37v6.02h-.22l-5.41-6.38v4.51c0,1.2.2,1.39,1.14,1.52v.22h-2.87v-.22c1.01-.1,1.19-.28,1.19-1.52v-5.11c-.4-.48-.59-.62-1.19-.62v-.22h2.08l4.73,5.61v-3.95c0-.59-.05-.94-.23-1.14-.21-.22-.43-.24-.97-.3v-.22h2.91v.22Z"/>
    <path class="cls-1" d="M88.29,26.65c-.26-1.28-.84-1.49-2.07-1.49h-.69v5.91c0,.88.16,1.02,1.12,1.07v.22h-3.39v-.22c.96-.06,1.09-.19,1.09-1.21v-5.78h-.7c-1.23,0-1.95.21-2.18,1.49h-.28l.08-1.98h7.21l.08,1.98h-.28Z"/>
    <path class="cls-1" d="M96,32.36h-6.26v-.22c.89-.06,1.01-.21,1.01-1.1v-5.07c0-.86-.14-1.03-1.01-1.08v-.22h6.16l.05,1.66h-.29c-.17-1.05-.44-1.22-1.79-1.22h-1.52c-.33,0-.41.05-.41.42v2.56h1.75c1,0,1.17-.2,1.31-1.12h.27v2.72h-.27c-.14-.98-.31-1.13-1.31-1.13h-1.75v2.82c0,.49.31.55,1.17.55h.42c1.66,0,2.16-.3,2.68-1.53h.33l-.53,1.96Z"/>
    <path class="cls-1" d="M103.29,32.36l-2.77-3.58-.65.02v2.25c0,.88.14,1.02,1.03,1.08v.22h-3.21v-.22c.87-.07.99-.2.99-1.22v-4.96c0-.86-.09-1-.99-1.07v-.22h3.16c1.1,0,1.93.28,2.43.69.38.31.57.88.57,1.39,0,1.01-.65,1.68-2.1,1.91l2.32,2.94c.34.43.58.5,1.09.55v.22h-1.88ZM99.88,28.38c1.12-.02,1.52-.1,2.06-.4.42-.23.66-.74.66-1.32,0-1.05-.69-1.56-2.13-1.56-.4,0-.59.08-.59.49v2.79Z"/>
    <path class="cls-1" d="M112.35,32.36h-6.26v-.22c.89-.06,1.01-.21,1.01-1.1v-5.07c0-.86-.14-1.03-1.01-1.08v-.22h6.16l.05,1.66h-.29c-.17-1.05-.44-1.22-1.79-1.22h-1.52c-.33,0-.41.05-.41.42v2.56h1.75c1,0,1.17-.2,1.31-1.12h.27v2.72h-.27c-.14-.98-.31-1.13-1.31-1.13h-1.75v2.82c0,.49.31.55,1.17.55h.42c1.66,0,2.16-.3,2.68-1.53h.33l-.53,1.96Z"/>
    <path class="cls-1" d="M119.46,26.98c-.15-.51-.28-.81-.5-1.09-.43-.52-1.04-.91-1.77-.91s-1.23.46-1.23,1.1c0,.79.9,1.28,2.19,1.99,1.29.72,1.89,1.39,1.89,2.28,0,1.3-1.08,2.17-2.49,2.17-.51,0-.99-.08-1.44-.27-.23-.09-.44-.13-.57-.13-.18,0-.34.14-.34.38h-.27l-.35-2.46h.27c.56,1.41,1.36,2.06,2.52,2.06.86,0,1.45-.53,1.45-1.3,0-.41-.12-.67-.35-.92-.43-.44-1.27-.95-2.05-1.35-1.1-.56-1.49-1.28-1.49-2,0-1.27.92-2.03,2.13-2.03.5,0,.82.07,1.28.26.22.09.42.14.54.14.21,0,.34-.14.39-.4h.26l.27,2.48h-.31Z"/>
    <path class="cls-1" d="M128.33,26.65c-.26-1.28-.84-1.49-2.07-1.49h-.69v5.91c0,.88.16,1.02,1.12,1.07v.22h-3.39v-.22c.96-.06,1.09-.19,1.09-1.21v-5.78h-.7c-1.23,0-1.96.21-2.19,1.49h-.28l.08-1.98h7.22l.08,1.98h-.28Z"/>
    <path class="cls-1" d="M144.37,28.74h-11.99v-.66h11.99v.66ZM63.72,28.08h-11.99v.66h11.99v-.66Z"/>
  </g>
  <g>
    <path class="cls-1" d="M60.66,11c-1.31.11-1.58.34-1.58,1.81v5.38c-1.29.21-3.54.65-5.74.69-2.31.04-4.61-.86-6.1-2.42-1.27-1.33-1.88-3.07-1.88-5.29,0-2.49.9-4.56,2.42-5.94,1.36-1.24,3.21-1.94,5.4-1.94,1.22,0,1.99.18,3.01.52.43.16.77.23.99.23.47,0,.88-.32,1.02-.75h.5l.18,4.77h-.52c-.56-1.38-.93-1.97-1.6-2.62-.86-.81-2.03-1.24-3.3-1.24-1.56,0-2.8.56-3.77,1.56-1.2,1.2-1.74,3.25-1.74,5.49,0,4.2,2.4,6.73,5.94,6.73,1.74,0,3.01-.63,3.01-1.38v-1.96c0-1.76-.23-3.5-2.01-3.63v-.41h5.79v.41Z"/>
    <path class="cls-1" d="M74.12,18.16h-11.64v-.41c1.66-.11,1.88-.39,1.88-2.05V6.29c0-1.6-.26-1.92-1.88-2.01v-.41h11.44l.09,3.09h-.54c-.32-1.94-.82-2.27-3.32-2.27h-2.83c-.6,0-.76.09-.76.78v4.75h3.26c1.86,0,2.18-.37,2.44-2.07h.5v5.05h-.5c-.26-1.81-.58-2.09-2.44-2.09h-3.26v5.25c0,.91.58,1.01,2.18,1.01h.78c3.09,0,4.02-.56,4.99-2.85h.6l-.99,3.65Z"/>
    <path class="cls-1" d="M105.47,18.16h-11.64v-.41c1.66-.11,1.88-.39,1.88-2.05V6.29c0-1.6-.26-1.92-1.88-2.01v-.41h11.44l.09,3.09h-.54c-.32-1.94-.82-2.27-3.32-2.27h-2.83c-.6,0-.76.09-.76.78v4.75h3.26c1.86,0,2.18-.37,2.44-2.07h.5v5.05h-.5c-.26-1.81-.58-2.09-2.44-2.09h-3.26v5.25c0,.91.58,1.01,2.18,1.01h.78c3.09,0,4.02-.56,4.99-2.85h.6l-.99,3.65Z"/>
    <path class="cls-1" d="M131.63,18.16v-.41c.78,0,.93-.04,1.19-.19.17-.09.3-.32.3-.52,0-.32-.15-.91-.41-1.51l-.89-2.03h-5.66l-.99,2.46c-.11.28-.19.65-.19.91,0,.67.48.89,1.51.89v.41h-4.3v-.41c1.25-.13,1.45-.58,2.72-3.61l4.45-10.54h.43l5.31,12.15c.6,1.4.91,1.86,2.03,1.99v.41h-5.51ZM129.02,6.67l-2.48,5.94h4.99l-2.5-5.94Z"/>
    <path class="cls-1" d="M149.7,18.16h-11.62v-.41c1.6-.09,1.88-.43,1.88-2.07V6.37c0-1.66-.19-1.96-1.88-2.09v-.41h6.11v.41c-1.77.11-2.03.39-2.03,2.05v10.02c0,.82.37.97,1.94.97h1.51c1.75,0,2.91-.39,3.65-1.32.28-.37.56-.84.91-1.6h.56l-1.04,3.76Z"/>
    <g>
      <path class="cls-1" d="M87.04,3.87v.41c.95.11,1.34.15,1.71.56.32.37.41,1.01.41,2.12v7.34l-8.33-10.43h-3.67v.41c1.06,0,1.38.26,2.09,1.14l10.47,12.98h.39V7.21c0-1.71.22-2.18.63-2.55.28-.24.6-.3,1.42-.39v-.41h-5.12Z"/>
      <path class="cls-1" d="M80.2,14.92v-5.77l-.95-.93v6.69c0,2.31-.2,2.63-1.97,2.83l-.12.41h5.05v-.41c-1.66-.24-2.01-.6-2.01-2.83Z"/>
    </g>
    <path class="cls-1" d="M120.5,16.74l-4.32-5.46c2.7-.41,3.91-1.66,3.91-3.54,0-.95-.35-2.01-1.06-2.59-.93-.76-2.46-1.27-4.51-1.27h-5.87v.41c1.66.13,1.84.39,1.84,1.99v9.22c0,1.9-.22,2.14-1.84,2.27v.41h5.96v-.41c-1.66-.11-1.92-.37-1.92-2.01v-3.55h0s0-1.44,0-1.44c0,0,0,0,0,0v-5.18c0-.76.37-.91,1.1-.91,2.68,0,3.95.95,3.95,2.89,0,1.08-.45,2.03-1.23,2.46-.88.48-1.59.65-3.19.71l1.86,2.44,3.85,4.99h3.5v-.41c-.95-.09-1.4-.22-2.03-1.01Z"/>
  </g>
</svg>